<svg xmlns="http://www.w3.org/2000/svg" viewBox="0 0 128 128" width="128" height="128">
  <rect width="128" height="128" rx="32" fill="#FFFBF8"/>
  <rect x="18" y="18" width="42" height="42" rx="14" fill="#F5C6C2"/>
  <rect x="68" y="18" width="42" height="42" rx="14" fill="#A8C9B8"/>
  <rect x="18" y="68" width="92" height="42" rx="14" fill="#B9D4F0"/>
  <circle cx="64" cy="64" r="10" fill="#D9D0F0"/>
  <circle cx="64" cy="64" r="4.5" fill="#FFFBF8"/>
  <circle cx="33" cy="34" r="4" fill="#FFFBF8"/>
  <circle cx="45" cy="34" r="4" fill="#FFFBF8"/>
  <path d="M26 48c2-6 8-9 13-9s11 3 13 9" fill="none" stroke="#FFFBF8" stroke-width="3" stroke-linecap="round"/>
  <rect x="80" y="28" width="18" height="22" rx="3" fill="#FFFBF8"/>
  <path d="M84 34h10M84 40h10M84 46h6" fill="none" stroke="#A8C9B8" stroke-width="2" stroke-linecap="round"/>
  <path d="M36 84l4 4 8-8M56 88h40M36 100l4 4 8-8M56 104h32" fill="none" stroke="#FFFBF8" stroke-width="3" stroke-linecap="round" stroke-linejoin="round"/>
</svg>
