<svg xmlns="http://www.w3.org/2000/svg" viewBox="0 0 128 128" width="128" height="128">
  <defs>
    <linearGradient id="kyKafGrad" x1="20" y1="20" x2="108" y2="108" gradientUnits="userSpaceOnUse">
      <stop stop-color="#7A9EC4"/>
      <stop offset="1" stop-color="#8FB89E"/>
    </linearGradient>
  </defs>
  <rect width="128" height="128" rx="32" fill="#F7F5FB"/>
  <path d="M38 92c0-28 10-52 34-52 10 0 18 4 24 12l10-10c-8-10-20-16-34-16-34 0-52 30-52 66h18z" fill="url(#kyKafGrad)"/>
  <path d="M74 42c18 2 30 16 30 36v14H86V78c0-12-8-20-20-22V42z" fill="url(#kyKafGrad)" opacity="0.92"/>
  <rect x="54" y="78" width="8" height="14" rx="2" fill="#F2B8B8"/>
  <rect x="66" y="70" width="8" height="22" rx="2" fill="#F5E4C8"/>
  <rect x="78" y="60" width="8" height="32" rx="2" fill="#A8C9B8"/>
</svg>
